<mxfile host="app.diagrams.net" agent="Mozilla/5.0 (Windows NT 6.1; Win64; x64; rv:109.0) Gecko/20100101 Firefox/115.0" version="24.7.4">
  <diagram name="Page-1" id="TN1ixEE1HF9rsIJkBhLg">
    <mxGraphModel dx="455" dy="354" grid="1" gridSize="10" guides="1" tooltips="1" connect="1" arrows="1" fold="1" page="1" pageScale="1" pageWidth="850" pageHeight="1100" math="1" shadow="0">
      <root>
        <mxCell id="0" />
        <mxCell id="1" parent="0" />
        <mxCell id="Zo-8Ba2icdBZgSNOVCYq-1" value="" style="verticalLabelPosition=bottom;shadow=0;dashed=0;align=center;html=1;verticalAlign=top;shape=mxgraph.electrical.transistors.nmos;pointerEvents=1;" vertex="1" parent="1">
          <mxGeometry x="380" y="130" width="60" height="100" as="geometry" />
        </mxCell>
        <mxCell id="Zo-8Ba2icdBZgSNOVCYq-2" value="" style="verticalLabelPosition=bottom;shadow=0;dashed=0;align=center;html=1;verticalAlign=top;shape=mxgraph.electrical.transistors.nmos;pointerEvents=1;" vertex="1" parent="1">
          <mxGeometry x="380" y="227" width="60" height="100" as="geometry" />
        </mxCell>
        <mxCell id="Zo-8Ba2icdBZgSNOVCYq-3" value="" style="endArrow=none;html=1;rounded=0;exitX=1;exitY=0;exitDx=0;exitDy=0;exitPerimeter=0;entryX=1;entryY=1;entryDx=0;entryDy=0;entryPerimeter=0;" edge="1" parent="1" source="Zo-8Ba2icdBZgSNOVCYq-2" target="Zo-8Ba2icdBZgSNOVCYq-1">
          <mxGeometry width="50" height="50" relative="1" as="geometry">
            <mxPoint x="390" y="270" as="sourcePoint" />
            <mxPoint x="440" y="250" as="targetPoint" />
          </mxGeometry>
        </mxCell>
        <mxCell id="Zo-8Ba2icdBZgSNOVCYq-5" value="&lt;font style=&quot;font-size: 16px;&quot;&gt;$$V_\text{ov,tail}$$&lt;/font&gt;" style="text;html=1;align=center;verticalAlign=middle;whiteSpace=wrap;rounded=0;" vertex="1" parent="1">
          <mxGeometry x="435" y="220" width="60" height="30" as="geometry" />
        </mxCell>
        <mxCell id="Zo-8Ba2icdBZgSNOVCYq-7" value="" style="pointerEvents=1;verticalLabelPosition=bottom;shadow=0;dashed=0;align=center;html=1;verticalAlign=top;shape=mxgraph.electrical.signal_sources.signal_ground;" vertex="1" parent="1">
          <mxGeometry x="430" y="320" width="20" height="20" as="geometry" />
        </mxCell>
        <mxCell id="Zo-8Ba2icdBZgSNOVCYq-8" value="&lt;font style=&quot;font-size: 16px;&quot;&gt;$$V_\text{ov,tail}+V_\text{ov,cas}+V_{th}$$&lt;/font&gt;" style="text;html=1;align=center;verticalAlign=middle;whiteSpace=wrap;rounded=0;" vertex="1" parent="1">
          <mxGeometry x="290" y="150" width="60" height="30" as="geometry" />
        </mxCell>
        <mxCell id="Zo-8Ba2icdBZgSNOVCYq-10" value="&lt;font style=&quot;font-size: 16px;&quot;&gt;$$V_\text{ov,tail}+V_\text{ov,cas}$$&lt;/font&gt;" style="text;whiteSpace=wrap;html=1;" vertex="1" parent="1">
          <mxGeometry x="360" y="80" width="130" height="50" as="geometry" />
        </mxCell>
      </root>
    </mxGraphModel>
  </diagram>
</mxfile>
